<svg width="32" height="32" viewBox="0 0 32 32" fill="none" xmlns="http://www.w3.org/2000/svg">
<path d="M26 0H6C2.68629 0 0 2.68629 0 6V26C0 29.3137 2.68629 32 6 32H26C29.3137 32 32 29.3137 32 26V6C32 2.68629 29.3137 0 26 0Z" fill="white"/>
<path d="M16.3462 23.415C14.3696 23.415 12.9159 22.9567 11.9849 22.04C11.0539 21.1162 10.5884 19.6982 10.5884 17.7861V9.86914H13.4888V17.7217C13.4888 18.7887 13.7179 19.5693 14.1763 20.0635C14.6346 20.5576 15.3651 20.8047 16.3677 20.8047C17.0981 20.8047 17.7176 20.665 18.2261 20.3857C18.7345 20.0993 19.1213 19.6051 19.3862 18.9033C19.6512 18.1943 19.7837 17.2132 19.7837 15.96C19.7837 14.721 19.644 13.7972 19.3647 13.1885C19.0854 12.5726 18.6235 12.2646 17.979 12.2646C17.356 12.2646 16.7043 12.4688 16.0239 12.877V10.2451C16.6971 9.84408 17.5099 9.64355 18.4624 9.64355C19.995 9.64355 21.0942 10.1449 21.7603 11.1475C22.4334 12.1429 22.77 13.7399 22.77 15.9385C22.77 18.5309 22.2544 20.4251 21.2231 21.6211C20.1991 22.8171 18.5734 23.415 16.3462 23.415Z" fill="black"/>
</svg>
